<svg width="800" height="500" viewBox="0 0 800 500" fill="none" xmlns="http://www.w3.org/2000/svg">
  <rect width="800" height="500" fill="#E5E5EA"/>
  <circle cx="400" cy="120" r="60" fill="#34C759" fill-opacity="0.3"/>
  <rect x="200" y="200" width="400" height="80" rx="12" fill="#FFFFFF"/>
  <rect x="220" y="220" width="100" height="40" rx="8" fill="#34C759" fill-opacity="0.5"/>
  <rect x="340" y="220" width="100" height="40" rx="8" fill="#0A84FF" fill-opacity="0.5"/>
  <rect x="460" y="220" width="120" height="40" rx="8" fill="#FF9500" fill-opacity="0.5"/>
  <rect x="150" y="310" width="500" height="120" rx="12" fill="#D1D1D6"/>
  <rect x="170" y="330" width="60" height="80" rx="4" fill="#34C759"/>
  <rect x="250" y="350" width="60" height="60" rx="4" fill="#0A84FF"/>
  <rect x="330" y="320" width="60" height="90" rx="4" fill="#FF9500"/>
  <rect x="410" y="360" width="60" height="50" rx="4" fill="#FF3B30"/>
  <rect x="490" y="340" width="60" height="70" rx="4" fill="#AF52DE"/>
  <rect x="570" y="370" width="60" height="40" rx="4" fill="#5856D6"/>
</svg>
